# xmcd
#
# Track frame offsets: 
#        150
#        10478
#        20846
#        38758
#        50689
#        62088
#        89905
#        107330
#        124919
#        137028
#
# Disc length: 2148 seconds
#
# Revision: 0
# Processed by: cddbd v1.5.2PL0 Copyright (c) Steve Scherf et al.
# Submitted via: ExactAudioCopy v0.99pb3
#
DISCID=8e08620a
DTITLE=John Hay and The Rhythmkings - John Hay and The Rhythmkings
DYEAR=1998
DGENRE=Blues
TTITLE0=Fever Pitch
TTITLE1=She's So Fine
TTITLE2=On Your Hands And Knees
TTITLE3=Stop Your Messing Around
TTITLE4=Hanky Panky
TTITLE5=Feeling So Bad
TTITLE6=Long Time Coming
TTITLE7=Back On My Feet Again
TTITLE8=Easy baby
TTITLE9=Left You Behind
EXTD=
EXTT0=
EXTT1=
EXTT2=
EXTT3=
EXTT4=
EXTT5=
EXTT6=
EXTT7=
EXTT8=
EXTT9=
PLAYORDER=
